<?xml version="1.0" standalone="no"?>
<!DOCTYPE svg PUBLIC "-//W3C//DTD SVG 20010904//EN"
 "http://www.w3.org/TR/2001/REC-SVG-20010904/DTD/svg10.dtd">
<svg version="1.0" xmlns="http://www.w3.org/2000/svg"
 width="700.000000pt" height="700.000000pt" viewBox="0 0 700.000000 700.000000"
 preserveAspectRatio="xMidYMid meet">
<metadata>
Created by potrace 1.11, written by Peter Selinger 2001-2013
</metadata>
<g transform="translate(0.000000,700.000000) scale(0.100000,-0.100000)"
fill="#000000" stroke="none">
<path d="M2964 5100 c-1044 -1045 -1901 -1905 -1905 -1912 -11 -21 8 -55 33
-59 13 -2 544 -4 1181 -4 636 1 1157 -1 1157 -4 0 -5 -66 -108 -207 -323 -105
-161 -256 -392 -390 -598 -41 -63 -131 -200 -199 -305 -69 -104 -217 -332
-330 -505 -113 -173 -245 -376 -294 -450 -49 -74 -121 -184 -160 -245 -39 -60
-114 -175 -166 -255 -268 -411 -267 -409 -254 -425 19 -23 31 -18 91 38 31 28
100 93 154 142 53 50 112 104 129 120 31 28 197 182 255 234 14 13 75 69 135
125 60 56 121 112 136 126 15 14 73 68 130 120 57 52 115 106 130 120 15 14
71 66 125 115 53 50 112 104 130 120 17 17 78 73 135 125 120 111 126 117 256
237 54 50 113 103 129 119 60 55 239 220 274 253 20 18 73 67 118 108 44 41
96 89 115 106 18 18 82 77 142 132 60 55 121 111 136 125 15 14 70 65 123 113
53 49 109 101 124 115 16 15 78 72 138 127 60 55 125 115 144 134 20 18 74 67
120 110 46 42 100 92 121 111 21 19 86 80 146 135 59 55 120 111 135 125 25
24 197 182 244 225 43 39 251 231 314 290 189 176 194 181 186 204 -4 12 -15
25 -25 29 -10 4 -552 7 -1203 6 l-1184 0 16 35 c10 20 206 416 438 881 231
465 533 1071 670 1346 249 499 263 534 219 534 -7 0 -867 -855 -1912 -1900z"/>
</g>
</svg>
